<svg xmlns="http://www.w3.org/2000/svg" xmlns:xlink="http://www.w3.org/1999/xlink" id="Layer_1" x="0px" y="0px" viewBox="0 0 68 20" style="enable-background:new 0 0 68 20;" xml:space="preserve">  <style type="text/css">	.st0{fill:#F0AD4D;}	.st1{fill:#FFFFFF;}</style>  <g>	<g>		<g>			<path class="st0" d="M5.8,9.3l-3.6,2l0.8-4L0,4.5L4.1,4l1.7-3.7L7.5,4l4.1,0.5l-3,2.8l0.8,4L5.8,9.3z"></path>			<path class="st0" d="M19.7,9.3l-3.6,2l0.8-4l-3-2.8L17.9,4l1.7-3.7L21.4,4l4.1,0.5l-3,2.8l0.8,4L19.7,9.3z"></path>			<path class="st0" d="M33.5,9.3l-3.6,2l0.8-4l-3-2.8L31.8,4l1.7-3.7L35.2,4l4.1,0.5l-3,2.8l0.8,4L33.5,9.3z"></path>			<path class="st0" d="M47.3,9.3l-3.6,2l0.8-4l-3-2.8L45.6,4l1.7-3.7L49.1,4l4.1,0.5l-3,2.8l0.8,4L47.3,9.3z"></path>			<path class="st0" d="M61.2,9.3l-3.6,2l0.8-4l-3-2.8L59.5,4l1.7-3.7L62.9,4L67,4.5l-3,2.8l0.8,4L61.2,9.3z"></path>		</g>	</g>	<g>		<path class="st1" d="M0.2,19.7v-3.7h1.4c0.3,0,0.5,0,0.7,0.1c0.2,0.1,0.3,0.2,0.4,0.4c0.1,0.2,0.2,0.4,0.2,0.6    c0,0.2-0.1,0.4-0.2,0.6c-0.1,0.2-0.3,0.3-0.4,0.4c-0.2,0.1-0.4,0.1-0.7,0.1h-1v-0.6h0.9c0.2,0,0.3,0,0.4-0.1    c0.1,0,0.2-0.1,0.2-0.2c0.1-0.1,0.1-0.2,0.1-0.3c0-0.1,0-0.2-0.1-0.3c-0.1-0.1-0.1-0.2-0.2-0.2c-0.1,0-0.2-0.1-0.4-0.1H0.9v3.2    H0.2z M2.1,18l0.9,1.7H2.3L1.4,18H2.1z"></path>		<path class="st1" d="M4.3,19.7H3.6l1.3-3.7h0.8L7,19.7H6.3l-1-3h0L4.3,19.7z M4.3,18.2h2v0.5h-2V18.2z"></path>		<path class="st1" d="M7.2,16.5v-0.6h3v0.6H9v3.2H8.3v-3.2H7.2z"></path>		<path class="st1" d="M11.7,15.9v3.7H11v-3.7H11.7z"></path>		<path class="st1" d="M15.7,15.9v3.7h-0.6l-1.8-2.6h0v2.6h-0.7v-3.7h0.6l1.8,2.6h0v-2.6H15.7z"></path>		<path class="st1" d="M19.2,17.1c0-0.1-0.1-0.2-0.1-0.3c-0.1-0.1-0.1-0.1-0.2-0.2c-0.1-0.1-0.2-0.1-0.3-0.1c-0.1,0-0.2,0-0.3,0    c-0.2,0-0.4,0.1-0.5,0.2c-0.2,0.1-0.3,0.2-0.4,0.4c-0.1,0.2-0.1,0.4-0.1,0.7c0,0.3,0,0.5,0.1,0.7c0.1,0.2,0.2,0.3,0.4,0.4    c0.2,0.1,0.3,0.2,0.6,0.2c0.2,0,0.4,0,0.5-0.1c0.1-0.1,0.2-0.2,0.3-0.3c0.1-0.1,0.1-0.3,0.1-0.5l0.2,0h-1v-0.5H20v0.4    c0,0.3-0.1,0.6-0.2,0.8c-0.1,0.2-0.3,0.4-0.6,0.5c-0.2,0.1-0.5,0.2-0.8,0.2c-0.3,0-0.6-0.1-0.9-0.2c-0.3-0.2-0.5-0.4-0.6-0.7    c-0.1-0.3-0.2-0.6-0.2-1c0-0.3,0-0.6,0.1-0.8c0.1-0.2,0.2-0.4,0.4-0.6c0.2-0.2,0.3-0.3,0.5-0.4c0.2-0.1,0.4-0.1,0.7-0.1    c0.2,0,0.4,0,0.6,0.1s0.3,0.1,0.5,0.3c0.1,0.1,0.3,0.2,0.3,0.4c0.1,0.2,0.1,0.3,0.2,0.5H19.2z"></path>		<path class="st1" d="M23.7,19.7c-0.2,0-0.5,0-0.7-0.1c-0.2-0.1-0.3-0.2-0.5-0.4c-0.1-0.2-0.2-0.3-0.2-0.6H23    c0,0.2,0.1,0.3,0.2,0.4c0.1,0.1,0.3,0.1,0.4,0.1c0.1,0,0.3,0,0.4-0.1c0.1-0.1,0.2-0.1,0.2-0.3c0.1-0.1,0.1-0.2,0.1-0.4    c0-0.1,0-0.3-0.1-0.4c-0.1-0.1-0.1-0.2-0.3-0.3c-0.1-0.1-0.2-0.1-0.4-0.1c-0.1,0-0.2,0-0.3,0.1c-0.1,0-0.2,0.1-0.3,0.2l-0.6-0.1    l0.2-1.9h2.2v0.6h-1.6l-0.1,1h0c0.1-0.1,0.2-0.1,0.3-0.2c0.1-0.1,0.3-0.1,0.4-0.1c0.2,0,0.4,0.1,0.6,0.2c0.2,0.1,0.3,0.3,0.4,0.4    C25,18,25,18.2,25,18.5c0,0.2-0.1,0.5-0.2,0.7s-0.3,0.3-0.5,0.5C24.2,19.7,23.9,19.7,23.7,19.7z"></path>		<path class="st1" d="M26.2,19.7c-0.1,0-0.2,0-0.3-0.1c-0.1-0.1-0.1-0.2-0.1-0.3c0-0.1,0-0.2,0.1-0.3c0.1-0.1,0.2-0.1,0.3-0.1    c0.1,0,0.2,0,0.3,0.1c0.1,0.1,0.1,0.2,0.1,0.3c0,0.1,0,0.1-0.1,0.2c0,0.1-0.1,0.1-0.1,0.1C26.3,19.7,26.3,19.7,26.2,19.7z"></path>		<path class="st1" d="M28.8,19.8c-0.3,0-0.6-0.1-0.8-0.2c-0.2-0.2-0.4-0.4-0.5-0.7c-0.1-0.3-0.2-0.6-0.2-1c0-0.4,0.1-0.8,0.2-1    c0.1-0.3,0.3-0.5,0.5-0.7c0.2-0.2,0.5-0.2,0.8-0.2c0.3,0,0.6,0.1,0.8,0.2c0.2,0.2,0.4,0.4,0.5,0.7c0.1,0.3,0.2,0.6,0.2,1    c0,0.4-0.1,0.8-0.2,1c-0.1,0.3-0.3,0.5-0.5,0.7C29.3,19.7,29.1,19.8,28.8,19.8z M28.8,19.2c0.2,0,0.4-0.1,0.6-0.3    c0.1-0.2,0.2-0.6,0.2-1c0-0.3,0-0.5-0.1-0.7c-0.1-0.2-0.1-0.4-0.3-0.5c-0.1-0.1-0.2-0.2-0.4-0.2c-0.2,0-0.4,0.1-0.6,0.3    c-0.1,0.2-0.2,0.6-0.2,1c0,0.3,0,0.5,0.1,0.8c0.1,0.2,0.1,0.4,0.3,0.5C28.5,19.1,28.6,19.2,28.8,19.2z"></path>	</g></g>  <g></g>  <g></g>  <g></g>  <g></g>  <g></g>  <g></g></svg>